<?xml version="1.0" encoding="us-ascii" standalone="no"?><svg xmlns="http://www.w3.org/2000/svg" xmlns:xlink="http://www.w3.org/1999/xlink" contentStyleType="text/css" height="968px" preserveAspectRatio="none" style="width:466px;height:968px;background:#FFFFFF;" version="1.1" viewBox="0 0 466 968" width="466px" zoomAndPan="magnify"><defs/><g><rect fill="#FFFFFF" height="87.3984" style="stroke:#181818;stroke-width:1.0;" width="10" x="275" y="112.4297"/><rect fill="#FFFFFF" height="58.2656" style="stroke:#181818;stroke-width:1.0;" width="10" x="275" y="228.9609"/><rect fill="#FFFFFF" height="174.7969" style="stroke:#181818;stroke-width:1.0;" width="10" x="275" y="316.3594"/><rect fill="#FFFFFF" height="116.5313" style="stroke:#181818;stroke-width:1.0;" width="10" x="275" y="520.2891"/><rect fill="#FFFFFF" height="58.2656" style="stroke:#181818;stroke-width:1.0;" width="10" x="275" y="665.9531"/><rect fill="#FFFFFF" height="116.5313" style="stroke:#181818;stroke-width:1.0;" width="10" x="275" y="753.3516"/><line style="stroke:#181818;stroke-width:0.5;stroke-dasharray:5.0,5.0;" x1="34" x2="34" y1="81.2969" y2="887.8828"/><line style="stroke:#181818;stroke-width:0.5;stroke-dasharray:5.0,5.0;" x1="98" x2="98" y1="81.2969" y2="887.8828"/><line style="stroke:#181818;stroke-width:0.5;stroke-dasharray:5.0,5.0;" x1="279.5" x2="279.5" y1="81.2969" y2="887.8828"/><line style="stroke:#181818;stroke-width:0.5;stroke-dasharray:5.0,5.0;" x1="442" x2="442" y1="81.2969" y2="887.8828"/><text fill="#000000" font-family="sans-serif" font-size="14" lengthAdjust="spacing" textLength="53" x="5" y="77.9951">&#1084;&#1072;&#1089;&#1090;&#1077;&#1088;</text><ellipse cx="34.5" cy="13.5" fill="#E2E2F0" rx="8" ry="8" style="stroke:#181818;stroke-width:0.5;"/><path d="M34.5,21.5 L34.5,48.5 M21.5,29.5 L47.5,29.5 M34.5,48.5 L21.5,63.5 M34.5,48.5 L47.5,63.5 " fill="none" style="stroke:#181818;stroke-width:0.5;"/><text fill="#000000" font-family="sans-serif" font-size="14" lengthAdjust="spacing" textLength="53" x="5" y="899.8779">&#1084;&#1072;&#1089;&#1090;&#1077;&#1088;</text><ellipse cx="34.5" cy="911.6797" fill="#E2E2F0" rx="8" ry="8" style="stroke:#181818;stroke-width:0.5;"/><path d="M34.5,919.6797 L34.5,946.6797 M21.5,927.6797 L47.5,927.6797 M34.5,946.6797 L21.5,961.6797 M34.5,946.6797 L47.5,961.6797 " fill="none" style="stroke:#181818;stroke-width:0.5;"/><text fill="#000000" font-family="sans-serif" font-size="14" lengthAdjust="spacing" textLength="42" x="74" y="77.9951">&#1080;&#1075;&#1088;&#1086;&#1082;</text><ellipse cx="98" cy="13.5" fill="#E2E2F0" rx="8" ry="8" style="stroke:#181818;stroke-width:0.5;"/><path d="M98,21.5 L98,48.5 M85,29.5 L111,29.5 M98,48.5 L85,63.5 M98,48.5 L111,63.5 " fill="none" style="stroke:#181818;stroke-width:0.5;"/><text fill="#000000" font-family="sans-serif" font-size="14" lengthAdjust="spacing" textLength="42" x="74" y="899.8779">&#1080;&#1075;&#1088;&#1086;&#1082;</text><ellipse cx="98" cy="911.6797" fill="#E2E2F0" rx="8" ry="8" style="stroke:#181818;stroke-width:0.5;"/><path d="M98,919.6797 L98,946.6797 M85,927.6797 L111,927.6797 M98,946.6797 L85,961.6797 M98,946.6797 L111,961.6797 " fill="none" style="stroke:#181818;stroke-width:0.5;"/><rect fill="#E2E2F0" height="30.2969" rx="2.5" ry="2.5" style="stroke:#181818;stroke-width:0.5;" width="75" x="242.5" y="50"/><text fill="#000000" font-family="sans-serif" font-size="14" lengthAdjust="spacing" textLength="61" x="249.5" y="69.9951">&#1089;&#1080;&#1089;&#1090;&#1077;&#1084;&#1072;</text><rect fill="#E2E2F0" height="30.2969" rx="2.5" ry="2.5" style="stroke:#181818;stroke-width:0.5;" width="75" x="242.5" y="886.8828"/><text fill="#000000" font-family="sans-serif" font-size="14" lengthAdjust="spacing" textLength="61" x="249.5" y="906.8779">&#1089;&#1080;&#1089;&#1090;&#1077;&#1084;&#1072;</text><rect fill="#E2E2F0" height="30.2969" rx="2.5" ry="2.5" style="stroke:#181818;stroke-width:0.5;" width="36" x="424" y="50"/><text fill="#000000" font-family="sans-serif" font-size="14" lengthAdjust="spacing" textLength="22" x="431" y="69.9951">&#1041;&#1044;</text><rect fill="#E2E2F0" height="30.2969" rx="2.5" ry="2.5" style="stroke:#181818;stroke-width:0.5;" width="36" x="424" y="886.8828"/><text fill="#000000" font-family="sans-serif" font-size="14" lengthAdjust="spacing" textLength="22" x="431" y="906.8779">&#1041;&#1044;</text><rect fill="#FFFFFF" height="87.3984" style="stroke:#181818;stroke-width:1.0;" width="10" x="275" y="112.4297"/><rect fill="#FFFFFF" height="58.2656" style="stroke:#181818;stroke-width:1.0;" width="10" x="275" y="228.9609"/><rect fill="#FFFFFF" height="174.7969" style="stroke:#181818;stroke-width:1.0;" width="10" x="275" y="316.3594"/><rect fill="#FFFFFF" height="116.5313" style="stroke:#181818;stroke-width:1.0;" width="10" x="275" y="520.2891"/><rect fill="#FFFFFF" height="58.2656" style="stroke:#181818;stroke-width:1.0;" width="10" x="275" y="665.9531"/><rect fill="#FFFFFF" height="116.5313" style="stroke:#181818;stroke-width:1.0;" width="10" x="275" y="753.3516"/><polygon fill="#181818" points="263,108.4297,273,112.4297,263,116.4297,267,112.4297" style="stroke:#181818;stroke-width:1.0;"/><line style="stroke:#181818;stroke-width:1.0;" x1="98" x2="269" y1="112.4297" y2="112.4297"/><text fill="#000000" font-family="sans-serif" font-size="13" lengthAdjust="spacing" textLength="102" x="105" y="107.3638">&#1042;&#1093;&#1086;&#1076; &#1080;&#1075;&#1088;&#1082;&#1086;&#1082;&#1086;&#1084;</text><polygon fill="#181818" points="430,137.5625,440,141.5625,430,145.5625,434,141.5625" style="stroke:#181818;stroke-width:1.0;"/><line style="stroke:#181818;stroke-width:1.0;" x1="285" x2="436" y1="141.5625" y2="141.5625"/><text fill="#000000" font-family="sans-serif" font-size="13" lengthAdjust="spacing" textLength="108" x="292" y="136.4966">&#1089;&#1084;&#1077;&#1085;&#1080;&#1090;&#1100; &#1089;&#1090;&#1072;&#1090;&#1091;&#1089;</text><polygon fill="#181818" points="296,166.6953,286,170.6953,296,174.6953,292,170.6953" style="stroke:#181818;stroke-width:1.0;"/><line style="stroke:#181818;stroke-width:1.0;" x1="290" x2="441" y1="170.6953" y2="170.6953"/><text fill="#000000" font-family="sans-serif" font-size="13" lengthAdjust="spacing" textLength="39" x="302" y="165.6294">&#1075;&#1077;&#1088;&#1086;&#1080;</text><polygon fill="#181818" points="109,195.8281,99,199.8281,109,203.8281,105,199.8281" style="stroke:#181818;stroke-width:1.0;"/><line style="stroke:#181818;stroke-width:1.0;stroke-dasharray:2.0,2.0;" x1="103" x2="279" y1="199.8281" y2="199.8281"/><text fill="#000000" font-family="sans-serif" font-size="13" lengthAdjust="spacing" textLength="39" x="115" y="194.7622">&#1075;&#1077;&#1088;&#1086;&#1080;</text><polygon fill="#181818" points="263,224.9609,273,228.9609,263,232.9609,267,228.9609" style="stroke:#181818;stroke-width:1.0;"/><line style="stroke:#181818;stroke-width:1.0;" x1="34.5" x2="269" y1="228.9609" y2="228.9609"/><text fill="#000000" font-family="sans-serif" font-size="13" lengthAdjust="spacing" textLength="53" x="41.5" y="223.895">&#1074;&#1093;&#1086;&#1076; &#1075;&#1084;</text><polygon fill="#181818" points="430,254.0938,440,258.0938,430,262.0938,434,258.0938" style="stroke:#181818;stroke-width:1.0;"/><line style="stroke:#181818;stroke-width:1.0;" x1="285" x2="436" y1="258.0938" y2="258.0938"/><text fill="#000000" font-family="sans-serif" font-size="13" lengthAdjust="spacing" textLength="108" x="292" y="253.0278">&#1089;&#1084;&#1077;&#1085;&#1080;&#1090;&#1100; &#1089;&#1090;&#1072;&#1090;&#1091;&#1089;</text><polygon fill="#181818" points="45.5,283.2266,35.5,287.2266,45.5,291.2266,41.5,287.2266" style="stroke:#181818;stroke-width:1.0;"/><line style="stroke:#181818;stroke-width:1.0;" x1="39.5" x2="279" y1="287.2266" y2="287.2266"/><text fill="#000000" font-family="sans-serif" font-size="13" lengthAdjust="spacing" textLength="126" x="51.5" y="282.1606">&#1089;&#1090;&#1088;&#1072;&#1085;&#1080;&#1094;&#1072; &#1084;&#1072;&#1089;&#1090;&#1077;&#1088;&#1072;</text><polygon fill="#181818" points="263,312.3594,273,316.3594,263,320.3594,267,316.3594" style="stroke:#181818;stroke-width:1.0;"/><line style="stroke:#181818;stroke-width:1.0;" x1="98" x2="269" y1="316.3594" y2="316.3594"/><text fill="#000000" font-family="sans-serif" font-size="13" lengthAdjust="spacing" textLength="158" x="105" y="311.2935">&#1085;&#1072;&#1095;&#1072;&#1090;&#1100; &#1089;&#1091;&#1097;&#1077;&#1089;&#1090;&#1074;&#1091;&#1102;&#1097;&#1080;&#1084;</text><polygon fill="#181818" points="296,341.4922,286,345.4922,296,349.4922,292,345.4922" style="stroke:#181818;stroke-width:1.0;"/><line style="stroke:#181818;stroke-width:1.0;" x1="290" x2="441" y1="345.4922" y2="345.4922"/><text fill="#000000" font-family="sans-serif" font-size="13" lengthAdjust="spacing" textLength="39" x="302" y="340.4263">&#1075;&#1077;&#1088;&#1086;&#1081;</text><polygon fill="#181818" points="296,370.625,286,374.625,296,378.625,292,374.625" style="stroke:#181818;stroke-width:1.0;"/><line style="stroke:#181818;stroke-width:1.0;" x1="290" x2="441" y1="374.625" y2="374.625"/><text fill="#000000" font-family="sans-serif" font-size="13" lengthAdjust="spacing" textLength="102" x="302" y="369.5591">&#1076;&#1072;&#1085;&#1085;&#1099;&#1077; &#1082;&#1083;&#1072;&#1089;&#1089;&#1072;</text><polygon fill="#181818" points="296,399.7578,286,403.7578,296,407.7578,292,403.7578" style="stroke:#181818;stroke-width:1.0;"/><line style="stroke:#181818;stroke-width:1.0;" x1="290" x2="441" y1="403.7578" y2="403.7578"/><text fill="#000000" font-family="sans-serif" font-size="13" lengthAdjust="spacing" textLength="96" x="302" y="398.6919">&#1076;&#1072;&#1085;&#1085;&#1099;&#1077; &#1088;&#1072;&#1089;&#1089;&#1099;</text><polygon fill="#181818" points="296,428.8906,286,432.8906,296,436.8906,292,432.8906" style="stroke:#181818;stroke-width:1.0;"/><line style="stroke:#181818;stroke-width:1.0;" x1="290" x2="441" y1="432.8906" y2="432.8906"/><text fill="#000000" font-family="sans-serif" font-size="13" lengthAdjust="spacing" textLength="79" x="302" y="427.8247">&#1079;&#1072;&#1082;&#1083;&#1080;&#1085;&#1072;&#1085;&#1080;&#1103;</text><polygon fill="#181818" points="109,458.0234,99,462.0234,109,466.0234,105,462.0234" style="stroke:#181818;stroke-width:1.0;"/><line style="stroke:#181818;stroke-width:1.0;" x1="103" x2="274" y1="462.0234" y2="462.0234"/><text fill="#000000" font-family="sans-serif" font-size="13" lengthAdjust="spacing" textLength="119" x="115" y="456.9575">&#1076;&#1072;&#1085;&#1085;&#1099;&#1077; &#1076;&#1083;&#1103; &#1080;&#1075;&#1088;&#1099;</text><polygon fill="#181818" points="45.5,487.1563,35.5,491.1563,45.5,495.1563,41.5,491.1563" style="stroke:#181818;stroke-width:1.0;"/><line style="stroke:#181818;stroke-width:1.0;" x1="39.5" x2="279" y1="491.1563" y2="491.1563"/><text fill="#000000" font-family="sans-serif" font-size="13" lengthAdjust="spacing" textLength="91" x="51.5" y="486.0903">&#1080;&#1075;&#1088;&#1086;&#1082; &#1086;&#1085;&#1083;&#1072;&#1081;&#1085;</text><polygon fill="#181818" points="263,516.2891,273,520.2891,263,524.2891,267,520.2891" style="stroke:#181818;stroke-width:1.0;"/><line style="stroke:#181818;stroke-width:1.0;" x1="98" x2="269" y1="520.2891" y2="520.2891"/><text fill="#000000" font-family="sans-serif" font-size="13" lengthAdjust="spacing" textLength="100" x="105" y="515.2231">&#1089;&#1084;&#1077;&#1085;&#1080;&#1090;&#1100; &#1075;&#1077;&#1088;&#1086;&#1103;</text><polygon fill="#181818" points="45.5,545.4219,35.5,549.4219,45.5,553.4219,41.5,549.4219" style="stroke:#181818;stroke-width:1.0;"/><line style="stroke:#181818;stroke-width:1.0;" x1="39.5" x2="274" y1="549.4219" y2="549.4219"/><text fill="#000000" font-family="sans-serif" font-size="13" lengthAdjust="spacing" textLength="94" x="51.5" y="544.356">&#1080;&#1075;&#1088;&#1086;&#1082; &#1086;&#1092;&#1083;&#1072;&#1081;&#1085;</text><polygon fill="#181818" points="430,574.5547,440,578.5547,430,582.5547,434,578.5547" style="stroke:#181818;stroke-width:1.0;"/><line style="stroke:#181818;stroke-width:1.0;" x1="285" x2="436" y1="578.5547" y2="578.5547"/><text fill="#000000" font-family="sans-serif" font-size="13" lengthAdjust="spacing" textLength="94" x="292" y="573.4888">&#1080;&#1075;&#1088;&#1086;&#1082; &#1086;&#1092;&#1083;&#1072;&#1081;&#1085;</text><polygon fill="#181818" points="296,603.6875,286,607.6875,296,611.6875,292,607.6875" style="stroke:#181818;stroke-width:1.0;"/><line style="stroke:#181818;stroke-width:1.0;" x1="290" x2="441" y1="607.6875" y2="607.6875"/><text fill="#000000" font-family="sans-serif" font-size="13" lengthAdjust="spacing" textLength="133" x="302" y="602.6216">&#1075;&#1077;&#1088;&#1086;&#1080; &#1101;&#1090;&#1086;&#1075;&#1086; &#1080;&#1075;&#1088;&#1086;&#1082;&#1072;</text><polygon fill="#181818" points="109,632.8203,99,636.8203,109,640.8203,105,636.8203" style="stroke:#181818;stroke-width:1.0;"/><line style="stroke:#181818;stroke-width:1.0;" x1="103" x2="279" y1="636.8203" y2="636.8203"/><text fill="#000000" font-family="sans-serif" font-size="13" lengthAdjust="spacing" textLength="39" x="115" y="631.7544">&#1075;&#1077;&#1088;&#1086;&#1080;</text><polygon fill="#181818" points="263,661.9531,273,665.9531,263,669.9531,267,665.9531" style="stroke:#181818;stroke-width:1.0;"/><line style="stroke:#181818;stroke-width:1.0;" x1="98" x2="269" y1="665.9531" y2="665.9531"/><text fill="#000000" font-family="sans-serif" font-size="13" lengthAdjust="spacing" textLength="122" x="105" y="660.8872">&#1074;&#1099;&#1081;&#1090;&#1080; &#1080;&#1079; &#1072;&#1082;&#1072;&#1091;&#1085;&#1090;&#1072;</text><polygon fill="#181818" points="45.5,691.0859,35.5,695.0859,45.5,699.0859,41.5,695.0859" style="stroke:#181818;stroke-width:1.0;"/><line style="stroke:#181818;stroke-width:1.0;" x1="39.5" x2="274" y1="695.0859" y2="695.0859"/><text fill="#000000" font-family="sans-serif" font-size="13" lengthAdjust="spacing" textLength="94" x="51.5" y="690.02">&#1080;&#1075;&#1088;&#1086;&#1082; &#1086;&#1092;&#1083;&#1072;&#1081;&#1085;</text><polygon fill="#181818" points="430,720.2188,440,724.2188,430,728.2188,434,724.2188" style="stroke:#181818;stroke-width:1.0;"/><line style="stroke:#181818;stroke-width:1.0;" x1="280" x2="436" y1="724.2188" y2="724.2188"/><text fill="#000000" font-family="sans-serif" font-size="13" lengthAdjust="spacing" textLength="94" x="287" y="719.1528">&#1080;&#1075;&#1088;&#1086;&#1082; &#1086;&#1092;&#1083;&#1072;&#1081;&#1085;</text><polygon fill="#181818" points="263,749.3516,273,753.3516,263,757.3516,267,753.3516" style="stroke:#181818;stroke-width:1.0;"/><line style="stroke:#181818;stroke-width:1.0;" x1="98" x2="269" y1="753.3516" y2="753.3516"/><text fill="#000000" font-family="sans-serif" font-size="13" lengthAdjust="spacing" textLength="83" x="105" y="748.2856">&#1082;&#1072;&#1089;&#1090; &#1089;&#1087;&#1077;&#1083;&#1083;&#1072;</text><polygon fill="#181818" points="45.5,778.4844,35.5,782.4844,45.5,786.4844,41.5,782.4844" style="stroke:#181818;stroke-width:1.0;"/><line style="stroke:#181818;stroke-width:1.0;" x1="39.5" x2="274" y1="782.4844" y2="782.4844"/><text fill="#000000" font-family="sans-serif" font-size="13" lengthAdjust="spacing" textLength="83" x="51.5" y="777.4185">&#1086;&#1085; &#1082;&#1072;&#1089;&#1090;&#1072;&#1085;&#1091;&#1083;</text><polygon fill="#181818" points="263,807.6172,273,811.6172,263,815.6172,267,811.6172" style="stroke:#181818;stroke-width:1.0;"/><line style="stroke:#181818;stroke-width:1.0;" x1="34.5" x2="269" y1="811.6172" y2="811.6172"/><text fill="#000000" font-family="sans-serif" font-size="13" lengthAdjust="spacing" textLength="73" x="41.5" y="806.5513">&#1077;&#1084;&#1091; &#1084;&#1086;&#1078;&#1085;&#1086;</text><polygon fill="#181818" points="430,836.75,440,840.75,430,844.75,434,840.75" style="stroke:#181818;stroke-width:1.0;"/><line style="stroke:#181818;stroke-width:1.0;" x1="285" x2="436" y1="840.75" y2="840.75"/><text fill="#000000" font-family="sans-serif" font-size="13" lengthAdjust="spacing" textLength="123" x="292" y="835.6841">&#1086;&#1085; &#1087;&#1086;&#1090;&#1088;&#1072;&#1090;&#1080;&#1083; &#1088;&#1077;&#1089;&#1099;</text><polygon fill="#181818" points="109,865.8828,99,869.8828,109,873.8828,105,869.8828" style="stroke:#181818;stroke-width:1.0;"/><line style="stroke:#181818;stroke-width:1.0;" x1="103" x2="279" y1="869.8828" y2="869.8828"/><text fill="#000000" font-family="sans-serif" font-size="13" lengthAdjust="spacing" textLength="127" x="115" y="864.8169">&#1085;&#1086;&#1074;&#1086;&#1077; &#1082;&#1086;&#1083;&#1074;&#1086; &#1088;&#1077;&#1089;&#1086;&#1074;</text><!--SRC=[jLJRRe9047tdApQ-ymF6DAdnHuWrnWTRexJF8hsaiQrfqmyXg1L5y1Tc_gXd5aGNr8ScVLW2ksVcd3apYzDsxuQAjXImnnDQybWv8zNjMqvs4D6SnvJIHhRlHvsXDN26Rg_T6pYthggnHr4MA2bg0heUz4mCVTAtFcarBSkI7Cg-4bXTqHS_8VbYpxCH9gojqFSU7BUZqs59IAjPLo3SWYm1xOJVbEOEyEgpPxMQXyHpAGMPeeomOTkLWvkEGM9r-uVmSAzh_aSjEQpRh-jzK0OQ-4o1uJO55HrbZnAWNtHYpU7pAm8bFCJx1xwYKneRjjPOrBisTXTQJi9JMYeu7cj17iIS0ubIWV3KWAm0aV18LEe2P_lIfOWoqu9YdkNDpZFb9XqD6Xw9AA8r9HLp36jA3TZN2WsdMbQXuSU2vgYhbo1bKoF5xsX4YetqA33tyM32-Q4pMnt2fZKIHf9ifRIv0Vkm3vFr7qLTbhF9vbHyti7dMCBEgq3RYX1fEdJ7ngN2Fu9zcVwKVj2qr12eetSGf- -AU42nJDsocBc3dOYb44lFRWfL-CYnSbAgwXS0]--></g></svg>